HIERARCHY
ROOT Pelvis
{
	OFFSET 0.000000 0.000000 0.000000
	CHANNELS 6 Xposition Yposition Zposition Xrotation Yrotation Zrotation
	JOINT LeftUpLeg_virtual
	{
		OFFSET 0.000000 0.000000 0.000000
		CHANNELS 3 Xrotation Yrotation Zrotation
		JOINT LeftUpLeg
		{
			OFFSET 18.735201 -5.666702 -4.541200
			CHANNELS 3 Xrotation Yrotation Zrotation
			JOINT LeftLeg
			{
				OFFSET -0.021200 -31.938179 0.493100
				CHANNELS 3 Xrotation Yrotation Zrotation
				JOINT LeftFoot
				{
					OFFSET 0.021200 -31.938179 -4.336299
					CHANNELS 3 Xrotation Yrotation Zrotation
					JOINT LeftToeBase
					{
						OFFSET 0.943001 -26.722000 15.023500
						CHANNELS 3 Xrotation Yrotation Zrotation
						End Site
						{
							OFFSET 0 0 0
						}
					}
				}
			}
		}
	}
	JOINT RightUpLeg_virtual
	{
		OFFSET 0.000000 0.000000 0.000000
		CHANNELS 3 Xrotation Yrotation Zrotation
		JOINT RightUpLeg
		{
			OFFSET -18.735201 -5.666702 -4.541200
			CHANNELS 3 Xrotation Yrotation Zrotation
			JOINT RightLeg
			{
				OFFSET 0.018946 -31.938133 0.493100
				CHANNELS 3 Xrotation Yrotation Zrotation
				JOINT RightFoot
				{
					OFFSET -0.018946 -31.938126 -4.336299
					CHANNELS 3 Xrotation Yrotation Zrotation
					JOINT RightToeBase
					{
						OFFSET -0.943001 -26.722004 15.023500
						CHANNELS 3 Xrotation Yrotation Zrotation
						End Site
						{
							OFFSET 0 0 0
						}
					}
				}
			}
		}
	}
	JOINT Hips_virtual
	{
		OFFSET 0.000000 0.000000 0.000000
		CHANNELS 3 Xrotation Yrotation Zrotation
		JOINT Hips
		{
			OFFSET -0.000000 -0.000000 -0.000000
			CHANNELS 3 Xrotation Yrotation Zrotation
			JOINT Spine
			{
				OFFSET 0.000000 10.199997 -0.299500
				CHANNELS 3 Xrotation Yrotation Zrotation
				JOINT Spine1
				{
					OFFSET 0.000000 11.900002 -1.516600
					CHANNELS 3 Xrotation Yrotation Zrotation
					JOINT Spine2
					{
						OFFSET 0.000000 13.600006 -2.842500
						CHANNELS 3 Xrotation Yrotation Zrotation
						JOINT Neck_virtual
						{
							OFFSET 0.000000 0.000000 0.000000
							CHANNELS 3 Xrotation Yrotation Zrotation
							JOINT Neck
							{
								OFFSET 0.000000 9.624100 -2.890100
								CHANNELS 3 Xrotation Yrotation Zrotation
								JOINT Head
								{
									OFFSET 0.000000 14.068802 -1.351900
									CHANNELS 3 Xrotation Yrotation Zrotation
									End Site
									{
										OFFSET 0 0 0
									}
								}
							}
						}
						JOINT LeftShoulder_virtual
						{
							OFFSET 0.000000 0.000000 0.000000
							CHANNELS 3 Xrotation Yrotation Zrotation
							JOINT LeftShoulder
							{
								OFFSET 15.263000 10.923401 -0.547700
								CHANNELS 3 Xrotation Yrotation Zrotation
								JOINT LeftArm
								{
									OFFSET 25.438599 -2.830597 -13.032500
									CHANNELS 3 Xrotation Yrotation Zrotation
									JOINT LeftForeArm
									{
										OFFSET 29.960503 0.000000 0.000000
										CHANNELS 3 Xrotation Yrotation Zrotation
										JOINT LeftHand
										{
											OFFSET 27.849251 0.000000 0.000000
											CHANNELS 3 Xrotation Yrotation Zrotation
											End Site
											{
												OFFSET 0 0 0
											}
										}
									}
								}
							}
						}
						JOINT RightShoulder_virtual
						{
							OFFSET 0.000000 0.000000 0.000000
							CHANNELS 3 Xrotation Yrotation Zrotation
							JOINT RightShoulder
							{
								OFFSET -15.263000 10.923401 -0.547700
								CHANNELS 3 Xrotation Yrotation Zrotation
								JOINT RightArm
								{
									OFFSET -25.438599 -2.830597 -13.032500
									CHANNELS 3 Xrotation Yrotation Zrotation
									JOINT RightForeArm
									{
										OFFSET -29.960503 0.000000 0.000000
										CHANNELS 3 Xrotation Yrotation Zrotation
										JOINT RightHand
										{
											OFFSET -27.849251 0.000000 0.000000
											CHANNELS 3 Xrotation Yrotation Zrotation
											End Site
											{
												OFFSET 0 0 0
											}
										}
									}
								}
							}
						}
					}
				}
			}
		}
	}
}
MOTION
Frames: 8
Frame Time: 0.03333333
-1.683811 82.127472 27.272417 0.000000 0.000000 0.000000 11.133108 -41.878991 -1.393563 -27.803197 2.604578 9.333547 44.704684 -4.045360 2.692689 -12.007122 -4.459242 -5.167787 0.000000 0.000000 0.000000 -9.057018 -35.321558 1.371622 -47.607108 -11.771859 -16.465194 44.926580 8.422593 0.821864 -8.963622 4.627452 18.441482 0.000000 0.000000 0.000000 -8.702904 -46.274228 -2.392520 11.603950 -3.290474 -8.459543 12.700384 -9.438404 4.720373 5.099556 -4.772416 2.655303 0.000000 0.000000 0.000000 -2.495376 -0.456529 0.906877 -0.783285 4.594537 -1.170708 0.000000 0.000000 0.000000 1.810857 -5.297097 1.573473 -1.757382 -6.722921 0.887941 -16.563974 0.865349 -33.929477 6.507858 -11.812602 -9.045538 0.000000 0.000000 0.000000 1.013628 -5.478626 3.383121 4.470980 -8.206186 4.494881 6.347767 -29.173630 64.571044 -20.242601 59.460403 27.015101 0.000000 0.000000 0.000000 
-0.877941 82.615776 26.146420 0.000000 0.000000 0.000000 11.084599 -41.129336 -1.816076 -27.418434 2.871441 8.916184 41.087160 -4.143860 3.202804 -14.912118 -4.573220 -4.459602 0.000000 0.000000 0.000000 -8.402723 -36.807954 1.878547 -47.064020 -12.418141 -16.203780 45.295947 8.461453 1.116234 -8.702886 4.524868 18.973403 0.000000 0.000000 0.000000 -8.510380 -46.670942 -2.292503 12.369315 -3.580781 -8.116269 12.095445 -9.172259 4.457978 4.780487 -4.618669 2.513167 0.000000 0.000000 0.000000 -3.002447 -0.277888 0.966257 -1.024785 4.708343 -1.114201 0.000000 0.000000 0.000000 1.308272 -5.113675 1.480374 -2.012584 -6.160374 1.011950 -17.570131 -0.052097 -33.180499 6.188161 -13.118039 -8.679723 0.000000 0.000000 0.000000 0.839363 -5.302359 3.367724 4.499440 -7.742667 4.738654 8.723206 -26.648726 65.675247 -19.274485 60.629315 27.236001 0.000000 0.000000 0.000000 
-0.112457 83.039917 25.207415 0.000000 0.000000 0.000000 11.053079 -40.105628 -2.131311 -27.052136 3.167900 8.644201 37.717408 -4.282704 3.472572 -17.433926 -4.638132 -4.083218 0.000000 0.000000 0.000000 -8.297859 -37.499644 1.893923 -46.932784 -12.644137 -16.204024 45.882609 8.291313 1.083731 -8.158576 4.457594 18.863220 0.000000 0.000000 0.000000 -8.358470 -46.890007 -2.204475 13.085486 -3.544673 -7.882152 11.565232 -8.907757 4.204828 4.496710 -4.460103 2.376746 0.000000 0.000000 0.000000 -3.444621 -0.127623 0.865850 -1.239553 4.795844 -1.145082 0.000000 0.000000 0.000000 0.846282 -4.935286 1.377070 -2.254727 -5.645956 1.062420 -18.535694 -0.875379 -32.746642 5.852034 -14.406163 -8.434793 0.000000 0.000000 0.000000 0.640389 -5.105204 3.315692 4.456407 -7.219898 4.840764 10.883670 -24.384233 66.390764 -18.221403 61.682680 27.195867 0.000000 0.000000 0.000000 
0.569257 83.427643 24.213947 0.000000 0.000000 0.000000 11.076771 -39.342375 -2.297848 -26.606288 3.340354 8.429625 34.607926 -4.597157 3.512932 -19.666155 -4.757894 -4.095929 0.000000 0.000000 0.000000 -8.316950 -37.414649 1.822323 -46.907400 -12.600725 -16.246930 46.997562 8.136071 0.870332 -7.192286 4.559302 18.533107 0.000000 0.000000 0.000000 -8.204457 -47.027823 -2.118001 13.699303 -3.602123 -7.673336 11.128216 -8.669709 3.960563 4.257294 -4.311682 2.245371 0.000000 0.000000 0.000000 -3.823998 -0.005545 0.719987 -1.431734 4.866586 -1.201163 0.000000 0.000000 0.000000 0.432054 -4.775939 1.254392 -2.473470 -5.242845 0.988603 -19.418805 -1.826881 -32.671769 5.525043 -15.836823 -8.303817 0.000000 0.000000 0.000000 0.499776 -4.906902 3.249509 4.444903 -6.694306 4.872147 12.955805 -22.077238 66.879635 -17.083521 62.767062 27.003155 0.000000 0.000000 0.000000 
1.207200 83.909615 23.165747 0.000000 0.000000 0.000000 11.212488 -38.898532 -2.279553 -26.174745 3.413410 8.354970 32.326063 -4.882379 3.497948 -21.248416 -4.876563 -4.175193 0.000000 0.000000 0.000000 -8.373971 -36.960718 1.527306 -46.812955 -12.386830 -16.452464 48.227231 7.737358 0.501284 -5.977012 4.560480 17.774768 0.000000 0.000000 0.000000 -8.029284 -47.060369 -2.005442 14.336516 -3.551873 -7.408274 10.804021 -8.447162 3.741780 4.073098 -4.169563 2.128075 0.000000 0.000000 0.000000 -4.029148 0.143589 0.598420 -1.543018 4.947110 -1.248922 0.000000 0.000000 0.000000 0.098742 -4.612628 1.153911 -2.630540 -4.868221 0.964889 -20.104247 -2.889492 -32.694746 5.262666 -17.363538 -8.188780 0.000000 0.000000 0.000000 0.427935 -4.698049 3.219161 4.485189 -6.155997 5.034263 14.987783 -19.709300 67.281284 -15.858615 63.813488 26.715018 0.000000 0.000000 0.000000 
1.742476 84.358025 22.123962 0.000000 0.000000 0.000000 11.585623 -38.784106 -2.047333 -25.683816 3.423565 8.440822 31.049408 -4.838167 3.566172 -22.077275 -4.828005 -4.000388 0.000000 0.000000 0.000000 -8.295833 -36.657936 1.457250 -46.716626 -12.274241 -16.546830 49.681645 7.422087 0.176701 -4.610546 4.625982 17.155548 0.000000 0.000000 0.000000 -7.912044 -47.060809 -1.911070 14.739033 -3.535000 -7.119739 10.565854 -8.242755 3.542061 3.931605 -4.037536 2.022735 0.000000 0.000000 0.000000 -4.087720 0.300832 0.547296 -1.591778 5.030437 -1.263289 0.000000 0.000000 0.000000 -0.179348 -4.445767 1.076002 -2.751595 -4.501131 0.993267 -20.623418 -4.004423 -32.718744 5.053312 -18.871845 -8.063873 0.000000 0.000000 0.000000 0.385443 -4.484821 3.191158 4.521717 -5.601830 5.175706 16.767331 -17.509613 67.425920 -14.574130 64.725038 26.223307 0.000000 0.000000 0.000000 
2.295326 84.777946 21.165306 0.000000 0.000000 0.000000 11.805996 -38.875422 -1.983833 -25.204330 3.376391 8.313693 29.855163 -4.973427 3.339939 -22.728788 -4.813420 -4.281288 0.000000 0.000000 0.000000 -8.223317 -36.558441 1.356222 -46.626997 -12.209908 -16.674286 51.048414 7.003626 -0.196209 -3.232661 4.618407 16.348811 0.000000 0.000000 0.000000 -7.814742 -46.993409 -1.810852 15.112635 -3.454742 -6.748847 10.406749 -7.999718 3.404238 3.829120 -3.887806 1.955206 0.000000 0.000000 0.000000 -3.973555 0.521141 0.545478 -1.562880 5.140702 -1.259669 0.000000 0.000000 0.000000 -0.390785 -4.246330 1.029710 -2.828565 -4.039306 1.115231 -20.994733 -5.108857 -32.645668 4.882894 -20.395918 -7.910446 0.000000 0.000000 0.000000 0.365279 -4.250355 3.157413 4.545184 -5.009872 5.246764 18.223139 -15.626033 67.178490 -13.134949 65.392327 25.344978 0.000000 0.000000 0.000000 
2.818797 85.208267 20.232830 0.000000 0.000000 0.000000 11.954041 -39.058205 -1.975467 -24.874565 3.326634 8.171802 28.914335 -4.865790 3.064637 -23.166718 -4.598249 -4.504906 0.000000 0.000000 0.000000 -8.094547 -36.749146 1.284561 -46.494037 -12.243392 -16.798468 52.238093 6.600323 -0.550329 -1.983575 4.590553 15.548147 0.000000 0.000000 0.000000 -7.731255 -46.923707 -1.704918 15.328182 -3.528958 -6.276800 10.257979 -7.713296 3.246276 3.726544 -3.717190 1.880692 0.000000 0.000000 0.000000 -3.681347 0.818083 0.539900 -1.450015 5.287722 -1.257180 0.000000 0.000000 0.000000 -0.560813 -4.005634 0.989194 -2.886251 -3.431348 1.233587 -21.188953 -6.176527 -32.694353 4.770894 -21.915832 -7.762755 0.000000 0.000000 0.000000 0.333066 -3.993611 3.079162 4.530896 -4.361290 5.163788 19.198480 -14.177360 66.469762 -11.714469 65.889865 24.161345 0.000000 0.000000 0.000000 
